<svg xmlns="http://www.w3.org/2000/svg" viewBox="0 0 1440 240" preserveAspectRatio="none" fill="rgba(0,0,0,0.26)">
  <!-- left building cluster -->
  <rect x="0" y="150" width="70" height="90"/>
  <rect x="78" y="120" width="52" height="120"/>
  <rect x="138" y="160" width="46" height="80"/>
  <rect x="190" y="132" width="40" height="108"/>
  <rect x="236" y="170" width="60" height="70"/>

  <!-- mosque 1 (left-center): minarets + dome -->
  <g>
    <rect x="318" y="64" width="9" height="176"/>
    <polygon points="322.5,40 316,64 329,64"/>
    <circle cx="322.5" cy="36" r="4"/>
    <rect x="430" y="64" width="9" height="176"/>
    <polygon points="434.5,40 428,64 441,64"/>
    <circle cx="434.5" cy="36" r="4"/>
    <path d="M340 240 L340 150 Q378 86 416 150 L416 240 Z"/>
    <path d="M378 78 Q386 96 378 108 Q370 96 378 78 Z"/>
  </g>

  <!-- mid tall buildings -->
  <rect x="470" y="110" width="48" height="130"/>
  <rect x="524" y="86" width="40" height="154"/>
  <rect x="570" y="140" width="54" height="100"/>
  <rect x="630" y="118" width="44" height="122"/>

  <!-- mosque 2 (center-right): larger dome + minarets -->
  <g>
    <rect x="724" y="44" width="10" height="196"/>
    <polygon points="729,16 721,44 737,44"/>
    <circle cx="729" cy="11" r="5"/>
    <rect x="876" y="44" width="10" height="196"/>
    <polygon points="881,16 873,44 889,44"/>
    <circle cx="881" cy="11" r="5"/>
    <path d="M748 240 L748 150 Q805 60 862 150 L862 240 Z"/>
    <path d="M805 50 Q815 74 805 90 Q795 74 805 50 Z"/>
    <rect x="792" y="150" width="26" height="90"/>
  </g>

  <!-- right building cluster -->
  <rect x="912" y="128" width="50" height="112"/>
  <rect x="968" y="150" width="44" height="90"/>
  <rect x="1018" y="104" width="40" height="136"/>
  <rect x="1064" y="158" width="58" height="82"/>
  <rect x="1128" y="124" width="46" height="116"/>
  <rect x="1180" y="150" width="52" height="90"/>
  <rect x="1238" y="100" width="38" height="140"/>
  <rect x="1282" y="160" width="60" height="80"/>
  <rect x="1348" y="134" width="44" height="106"/>
  <rect x="1398" y="166" width="42" height="74"/>
</svg>
